<svg id="logosandtypes_com" xmlns="http://www.w3.org/2000/svg" viewBox="0 0 150 150"><style>.st1{fill:#d71341}</style><path d="M0 0h150v150H0V0z" fill="none" id="Layer_3"/><g id="universitaet_bremen"><path class="st1" d="M53.2 72.3c0 11.8 9.4 21.1 20.6 21.1 11.4 0 20.6-9.3 20.6-21.1v-54H84.2v54c.1 5.7-4.5 10.3-10.2 10.4h-.2c-5.7-.1-10.3-4.7-10.3-10.4V39.8H53.2v32.5zM22.3 29V18.3h-10V29zM32.6 39.7V29H22.3v10.7zM42.9 29V18.3H32.6V29zM63.5 29H53.2V18.3h10.3zM53.2 39.7H42.9V29h10.3z"/><path class="st1" d="M135.9 18.3v54c0 35.4-27.8 64.1-61.9 64.1-31.7 0-58.1-24.8-61.6-56.7v-40h9.9v32.5c0 29.5 23.2 53.3 51.7 53.3s51.6-23.8 51.6-53.3v-54l10.3.1z"/><path class="st1" d="M104.9 18.3v54c0 17.7-13.9 31.9-31 31.9s-31-14.1-31-31.9V39.7H32.6v32.5c0 23.6 18.6 42.5 41.3 42.5s41.3-18.9 41.3-42.5v-54l-10.3.1z"/></g></svg>